<?xml version="1.0" encoding="utf-8"?>
<!-- Generator: Adobe Illustrator 21.1.0, SVG Export Plug-In . SVG Version: 6.00 Build 0)  -->
<svg version="1.1" id="Слой_1" xmlns="http://www.w3.org/2000/svg" xmlns:xlink="http://www.w3.org/1999/xlink" x="0px" y="0px"
	 viewBox="0 0 81.7 100" style="enable-background:new 0 0 81.7 100;" xml:space="preserve">
<style type="text/css">
	.st0{fill:none;stroke:#FFFFFF;stroke-width:4;stroke-linecap:round;stroke-miterlimit:10;}
	.st1{fill:#FFFFFF;stroke:#FFFFFF;stroke-width:4;stroke-linecap:round;stroke-miterlimit:10;}
</style>
<g id="clipboard">
	<g>
		<path class="st0" d="M56.4,13C54.7,7.2,49.5,3,43.3,3h-4.7c-6.2,0-11.4,4.2-13.1,10"/>
		<polyline class="st0" points="62,13 62,25 20,25 20,13 		"/>
		<polyline class="st0" points="18.1,87 11,87 11,21 20,21 		"/>
		<line class="st0" x1="27.1" y1="87" x2="24.8" y2="87"/>
		<polyline class="st0" points="62,21 71,21 71,87 37.6,87 		"/>
		<path class="st0" d="M56.4,13H75c2.2,0,4,1.8,4,4v74c0,2.2-1.8,4-4,4H7c-2.2,0-4-1.8-4-4V17c0-2.2,1.8-4,4-4h18.6"/>
		<line class="st0" x1="37" y1="12" x2="45" y2="12"/>
	</g>
</g>
<path class="st1" d="M36,51v-8c0-0.6,0.4-1,1-1h8c0.6,0,1,0.4,1,1v8h8c0.6,0,1,0.4,1,1v8c0,0.6-0.4,1-1,1h-8v8c0,0.6-0.4,1-1,1h-8
	c-0.6,0-1-0.4-1-1v-8h-8c-0.6,0-1-0.4-1-1v-8c0-0.6,0.4-1,1-1H36z"/>
</svg>
