<svg xmlns="http://www.w3.org/2000/svg" width="1741" height="1010" viewBox="0 0 1741 1010"><path fill="#4880ed" d="M437.5 313.83a16.51 16.51 0 1 0 0-33.02 16.51 16.51 0 0 0 0 33.02zm764-209.04a16.5 16.5 0 1 0 0-33.02 16.5 16.5 0 0 0 0 33.02zm-973 416.07a16.5 16.5 0 1 0 0-33.01 16.5 16.5 0 0 0 0 33.01zm1495-103.01a16.52 16.52 0 1 0-.01-33.03 16.52 16.52 0 0 0 .01 33.03zm-278-106.02a16.51 16.51 0 1 0 0-33.02 16.51 16.51 0 0 0 0 33.02zm-243-34.01a16.5 16.5 0 1 0 0-33.02 16.5 16.5 0 0 0 0 33.02zm-244 106.02a16.5 16.5 0 1 0 0-33.02 16.5 16.5 0 0 0 0 33.02zm627 209.04a16.52 16.52 0 1 0-.01-33.03 16.52 16.52 0 0 0 .01 33.03zm-313-69.02a16.5 16.5 0 1 0 0-33.02 16.5 16.5 0 0 0 0 33.02zm-315 173.03a16.5 16.5 0 1 0 0-33.02 16.5 16.5 0 0 0 0 33.02zm454 35.01a16.51 16.51 0 1 0 0-33.02 16.51 16.51 0 0 0 0 33.02zm-245 69.01a16.5 16.5 0 1 0 0-33.02 16.5 16.5 0 0 0 0 33.02zm-173-277.05a16.5 16.5 0 1 0 0-33.02 16.5 16.5 0 0 0 0 33.02zm-175 243.04a16.5 16.5 0 1 0 0-33.02 16.5 16.5 0 0 0 0 33.02zm-210-556.09a16.5 16.5 0 1 0 0-33.02 16.5 16.5 0 0 0 0 33.02zm36 242.04a16.5 16.5 0 1 0 0-33.02 16.5 16.5 0 0 0 0 33.02zm-347-71.01a16.5 16.5 0 1 0 0-33.01 16.5 16.5 0 0 0 0 33.01zm103-277.05a16.5 16.5 0 1 0 0-33.02 16.5 16.5 0 0 0 0 33.02zm-313 209.04a16.5 16.5 0 1 0 0-33.02 16.5 16.5 0 0 0 0 33.02zm1148 696.12a16.52 16.52 0 1 0-.01-33.03 16.52 16.52 0 0 0 .01 33.03zM17.5 523.86a16.5 16.5 0 1 0 0-33.01 16.5 16.5 0 0 0 0 33.01zm977-490.08a16.5 16.5 0 1 0 0-33.02 16.5 16.5 0 0 0 0 33.02zm-174 211.04a16.51 16.51 0 1 0 0-33.02 16.51 16.51 0 0 0 0 33.02zm-593-140.03a16.5 16.5 0 1 0 0-33.01 16.5 16.5 0 0 0 0 33.01zm106 454.08a16.5 16.5 0 1 0 0-33.02 16.5 16.5 0 0 0 0 33.02z"/></svg>